<svg width="43" height="43" viewBox="0 0 43 43" fill="none" xmlns="http://www.w3.org/2000/svg">
<path d="M36.1591 3.91C35.0186 3.90835 33.896 4.19402 32.895 4.74066C32.5333 3.62031 31.8886 2.61226 31.0232 1.81403C30.1579 1.01579 29.1011 0.454403 27.9553 0.184155C26.8094 -0.0860922 25.6131 -0.0560466 24.4823 0.271386C23.3514 0.598819 22.3242 1.21256 21.5 2.05323C20.5489 1.08251 19.3302 0.41708 17.9993 0.141806C16.6684 -0.133467 15.2857 -0.00610935 14.0276 0.507637C12.7694 1.02138 11.6927 1.89824 10.9349 3.02636C10.1771 4.15448 9.77253 5.48275 9.77273 6.84175V11.728H6.84091C5.02659 11.728 3.28658 12.4487 2.00366 13.7316C0.720737 15.0145 0 16.7545 0 18.5687V21.5005C0 27.2025 2.26517 32.671 6.2972 36.7029C10.3292 40.7349 15.7978 43 21.5 43C27.2022 43 32.6708 40.7349 36.7028 36.7029C40.7348 32.671 43 27.2025 43 21.5005V10.7508C43 8.93647 42.2793 7.1965 40.9963 5.91361C39.7134 4.63072 37.9734 3.91 36.1591 3.91ZM39.0909 21.5005C39.0909 26.1658 37.2376 30.64 33.9387 33.9389C30.6397 37.2377 26.1654 39.091 21.5 39.091C16.8346 39.091 12.3603 37.2377 9.06135 33.9389C5.76241 30.64 3.90909 26.1658 3.90909 21.5005V18.5687C3.90909 17.7912 4.21798 17.0455 4.7678 16.4957C5.31762 15.9459 6.06334 15.637 6.84091 15.637H9.77273V21.5005C9.77273 22.0189 9.97865 22.516 10.3452 22.8825C10.7117 23.2491 11.2089 23.455 11.7273 23.455C12.2457 23.455 12.7428 23.2491 13.1093 22.8825C13.4759 22.516 13.6818 22.0189 13.6818 21.5005V6.84175C13.6818 6.0642 13.9907 5.3185 14.5405 4.76869C15.0904 4.21888 15.8361 3.91 16.6136 3.91C17.3912 3.91 18.1369 4.21888 18.6867 4.76869C19.2366 5.3185 19.5455 6.0642 19.5455 6.84175V13.6825C19.5455 14.2009 19.7514 14.698 20.1179 15.0645C20.4845 15.4311 20.9816 15.637 21.5 15.637C22.0184 15.637 22.5155 15.4311 22.8821 15.0645C23.2486 14.698 23.4545 14.2009 23.4545 13.6825V6.84175C23.4545 6.0642 23.7634 5.3185 24.3133 4.76869C24.8631 4.21888 25.6088 3.91 26.3864 3.91C27.1639 3.91 27.9096 4.21888 28.4595 4.76869C29.0093 5.3185 29.3182 6.0642 29.3182 6.84175V13.6825C29.3182 14.2009 29.5241 14.698 29.8907 15.0645C30.2572 15.4311 30.7544 15.637 31.2727 15.637C31.7911 15.637 32.2883 15.4311 32.6548 15.0645C33.0214 14.698 33.2273 14.2009 33.2273 13.6825V10.7508C33.2273 9.9732 33.5362 9.2275 34.086 8.67769C34.6358 8.12788 35.3815 7.819 36.1591 7.819C36.9367 7.819 37.6824 8.12788 38.2322 8.67769C38.782 9.2275 39.0909 9.9732 39.0909 10.7508V21.5005Z" fill="black"/>
</svg>
