<svg width="136" height="45" viewBox="0 0 136 45" fill="none" xmlns="http://www.w3.org/2000/svg">
<path d="M36.1591 5.91C35.0186 5.90835 33.896 6.19402 32.895 6.74066C32.5333 5.62031 31.8886 4.61226 31.0232 3.81403C30.1579 3.01579 29.1011 2.4544 27.9553 2.18416C26.8094 1.91391 25.6131 1.94395 24.4823 2.27139C23.3514 2.59882 22.3242 3.21256 21.5 4.05323C20.5489 3.08251 19.3302 2.41708 17.9993 2.14181C16.6684 1.86653 15.2857 1.99389 14.0276 2.50764C12.7694 3.02138 11.6927 3.89824 10.9349 5.02636C10.1771 6.15448 9.77253 7.48275 9.77273 8.84175V13.728H6.84091C5.02659 13.728 3.28658 14.4487 2.00366 15.7316C0.720737 17.0145 0 18.7545 0 20.5687V23.5005C0 29.2025 2.26517 34.671 6.2972 38.7029C10.3292 42.7349 15.7978 45 21.5 45C27.2022 45 32.6708 42.7349 36.7028 38.7029C40.7348 34.671 43 29.2025 43 23.5005V12.7508C43 10.9365 42.2793 9.1965 40.9963 7.91361C39.7134 6.63072 37.9734 5.91 36.1591 5.91ZM39.0909 23.5005C39.0909 28.1658 37.2376 32.64 33.9387 35.9389C30.6397 39.2377 26.1654 41.091 21.5 41.091C16.8346 41.091 12.3603 39.2377 9.06135 35.9389C5.76241 32.64 3.90909 28.1658 3.90909 23.5005V20.5687C3.90909 19.7912 4.21798 19.0455 4.7678 18.4957C5.31762 17.9459 6.06334 17.637 6.84091 17.637H9.77273V23.5005C9.77273 24.0189 9.97865 24.516 10.3452 24.8825C10.7117 25.2491 11.2089 25.455 11.7273 25.455C12.2457 25.455 12.7428 25.2491 13.1093 24.8825C13.4759 24.516 13.6818 24.0189 13.6818 23.5005V8.84175C13.6818 8.0642 13.9907 7.3185 14.5405 6.76869C15.0904 6.21888 15.8361 5.91 16.6136 5.91C17.3912 5.91 18.1369 6.21888 18.6867 6.76869C19.2366 7.3185 19.5455 8.0642 19.5455 8.84175V15.6825C19.5455 16.2009 19.7514 16.698 20.1179 17.0645C20.4845 17.4311 20.9816 17.637 21.5 17.637C22.0184 17.637 22.5155 17.4311 22.8821 17.0645C23.2486 16.698 23.4545 16.2009 23.4545 15.6825V8.84175C23.4545 8.0642 23.7634 7.3185 24.3133 6.76869C24.8631 6.21888 25.6088 5.91 26.3864 5.91C27.1639 5.91 27.9096 6.21888 28.4595 6.76869C29.0093 7.3185 29.3182 8.0642 29.3182 8.84175V15.6825C29.3182 16.2009 29.5241 16.698 29.8907 17.0645C30.2572 17.4311 30.7544 17.637 31.2727 17.637C31.7911 17.637 32.2883 17.4311 32.6548 17.0645C33.0214 16.698 33.2273 16.2009 33.2273 15.6825V12.7508C33.2273 11.9732 33.5362 11.2275 34.086 10.6777C34.6358 10.1279 35.3815 9.819 36.1591 9.819C36.9367 9.819 37.6824 10.1279 38.2322 10.6777C38.782 11.2275 39.0909 11.9732 39.0909 12.7508V23.5005Z" fill="white"/>
<path d="M65.1832 35.4773C63.7131 35.4773 62.4524 35.2749 61.4013 34.87C60.3572 34.4723 59.5263 33.929 58.9084 33.2401C58.2905 32.5511 57.8892 31.777 57.7045 30.9176L61.902 30.353C62.0298 30.6797 62.2322 30.9851 62.5092 31.2692C62.7862 31.5533 63.152 31.7805 63.6065 31.951C64.0682 32.1286 64.6293 32.2173 65.2898 32.2173C66.277 32.2173 67.0902 31.9759 67.7294 31.4929C68.3757 31.017 68.6989 30.218 68.6989 29.0959V26.1023H68.5071C68.3082 26.5568 68.0099 26.9865 67.6122 27.3913C67.2145 27.7962 66.7031 28.1264 66.0781 28.3821C65.4531 28.6378 64.7074 28.7656 63.8409 28.7656C62.6122 28.7656 61.4936 28.4815 60.4851 27.9134C59.4837 27.3381 58.6847 26.4609 58.0881 25.282C57.4986 24.0959 57.2038 22.5973 57.2038 20.7862C57.2038 18.9325 57.5057 17.3842 58.1094 16.1413C58.7131 14.8984 59.5156 13.968 60.517 13.3501C61.5256 12.7322 62.63 12.4233 63.8303 12.4233C64.7464 12.4233 65.5135 12.5795 66.1314 12.892C66.7493 13.1974 67.2464 13.581 67.6229 14.0426C68.0064 14.4972 68.3011 14.9446 68.5071 15.3849H68.6776V12.6364H73.1839V29.1598C73.1839 30.5518 72.843 31.7166 72.1612 32.6541C71.4794 33.5916 70.5348 34.2947 69.3274 34.7635C68.1271 35.2393 66.7457 35.4773 65.1832 35.4773ZM65.2791 25.3565C66.0107 25.3565 66.6286 25.1754 67.1328 24.8132C67.6442 24.4439 68.0348 23.9183 68.3047 23.2365C68.5817 22.5476 68.7202 21.7237 68.7202 20.7649C68.7202 19.8061 68.5852 18.9751 68.3153 18.272C68.0455 17.5618 67.6548 17.0114 67.1435 16.6207C66.6321 16.2301 66.0107 16.0348 65.2791 16.0348C64.5334 16.0348 63.9048 16.2372 63.3935 16.642C62.8821 17.0398 62.495 17.5937 62.2322 18.304C61.9695 19.0142 61.8381 19.8345 61.8381 20.7649C61.8381 21.7095 61.9695 22.5263 62.2322 23.2152C62.5021 23.897 62.8892 24.4261 63.3935 24.8026C63.9048 25.1719 64.5334 25.3565 65.2791 25.3565ZM76.7955 29V12.6364H81.1953V15.4915H81.3658C81.6641 14.4759 82.1648 13.7088 82.8679 13.1903C83.571 12.6648 84.3807 12.402 85.2969 12.402C85.5241 12.402 85.7692 12.4162 86.032 12.4446C86.2947 12.473 86.5256 12.5121 86.7244 12.5618V16.5888C86.5114 16.5249 86.2166 16.468 85.8402 16.4183C85.4638 16.3686 85.1193 16.3438 84.8068 16.3438C84.1392 16.3438 83.5426 16.4893 83.017 16.7805C82.4986 17.0646 82.0866 17.4624 81.7812 17.9737C81.483 18.4851 81.3338 19.0746 81.3338 19.7422V29H76.7955ZM93.2683 29.3089C92.2243 29.3089 91.2939 29.1278 90.4771 28.7656C89.6603 28.3963 89.014 27.853 88.5382 27.1357C88.0694 26.4112 87.835 25.5092 87.835 24.4297C87.835 23.5206 88.002 22.7571 88.3358 22.1392C88.6696 21.5213 89.1241 21.0241 89.6994 20.6477C90.2747 20.2713 90.9281 19.9872 91.6596 19.7955C92.3983 19.6037 93.1724 19.4688 93.9821 19.3906C94.9338 19.2912 95.7008 19.1989 96.2832 19.1136C96.8656 19.0213 97.2882 18.8864 97.551 18.7088C97.8137 18.5312 97.9451 18.2685 97.9451 17.9205V17.8565C97.9451 17.1818 97.7321 16.6598 97.3059 16.2905C96.8869 15.9212 96.2903 15.7365 95.5162 15.7365C94.6994 15.7365 94.0495 15.9176 93.5666 16.2798C93.0836 16.6349 92.764 17.0824 92.6078 17.6222L88.4103 17.2812C88.6234 16.2869 89.0424 15.4276 89.6674 14.7031C90.2924 13.9716 91.0985 13.4105 92.0858 13.0199C93.0801 12.6222 94.2306 12.4233 95.5375 12.4233C96.4466 12.4233 97.3166 12.5298 98.1476 12.7429C98.9856 12.956 99.7278 13.2862 100.374 13.7337C101.028 14.1811 101.542 14.7564 101.919 15.4595C102.295 16.1555 102.483 16.9901 102.483 17.9631V29H98.1795V26.7308H98.0517C97.7889 27.2422 97.4373 27.6932 96.997 28.0838C96.5566 28.4673 96.0275 28.7692 95.4096 28.9893C94.7917 29.2024 94.0779 29.3089 93.2683 29.3089ZM94.568 26.1768C95.2356 26.1768 95.8251 26.0455 96.3365 25.7827C96.8478 25.5128 97.2491 25.1506 97.5403 24.696C97.8315 24.2415 97.9771 23.7266 97.9771 23.1513V21.4148C97.8351 21.5071 97.6397 21.5923 97.3912 21.6705C97.1497 21.7415 96.8762 21.8089 96.5708 21.8729C96.2654 21.9297 95.96 21.983 95.6547 22.0327C95.3493 22.0753 95.0723 22.1143 94.8237 22.1499C94.291 22.228 93.8258 22.3523 93.4281 22.5227C93.0304 22.6932 92.7214 22.924 92.5012 23.2152C92.2811 23.4993 92.171 23.8544 92.171 24.2805C92.171 24.8984 92.3947 25.3707 92.8422 25.6974C93.2967 26.017 93.872 26.1768 94.568 26.1768ZM106.09 29V7.18182H110.628V15.3849H110.767C110.965 14.9446 111.253 14.4972 111.629 14.0426C112.013 13.581 112.51 13.1974 113.121 12.892C113.739 12.5795 114.506 12.4233 115.422 12.4233C116.615 12.4233 117.716 12.7358 118.725 13.3608C119.733 13.9787 120.539 14.9126 121.143 16.1626C121.747 17.4055 122.048 18.9645 122.048 20.8395C122.048 22.6648 121.754 24.206 121.164 25.4631C120.582 26.7131 119.786 27.6612 118.778 28.3075C117.776 28.9467 116.654 29.2663 115.411 29.2663C114.531 29.2663 113.781 29.1207 113.164 28.8295C112.553 28.5384 112.052 28.1726 111.661 27.7322C111.271 27.2848 110.972 26.8338 110.767 26.3793H110.564V29H106.09ZM110.532 20.8182C110.532 21.7912 110.667 22.6399 110.937 23.3643C111.207 24.0888 111.597 24.6534 112.109 25.0582C112.62 25.456 113.242 25.6548 113.973 25.6548C114.712 25.6548 115.337 25.4524 115.848 25.0476C116.36 24.6357 116.747 24.0675 117.009 23.343C117.279 22.6115 117.414 21.7699 117.414 20.8182C117.414 19.8736 117.283 19.0426 117.02 18.3253C116.757 17.608 116.37 17.0469 115.859 16.642C115.347 16.2372 114.719 16.0348 113.973 16.0348C113.235 16.0348 112.61 16.2301 112.098 16.6207C111.594 17.0114 111.207 17.5653 110.937 18.2827C110.667 19 110.532 19.8452 110.532 20.8182ZM125.077 29V12.6364H129.477V15.4915H129.647C129.945 14.4759 130.446 13.7088 131.149 13.1903C131.852 12.6648 132.662 12.402 133.578 12.402C133.805 12.402 134.05 12.4162 134.313 12.4446C134.576 12.473 134.807 12.5121 135.006 12.5618V16.5888C134.793 16.5249 134.498 16.468 134.121 16.4183C133.745 16.3686 133.401 16.3438 133.088 16.3438C132.42 16.3438 131.824 16.4893 131.298 16.7805C130.78 17.0646 130.368 17.4624 130.062 17.9737C129.764 18.4851 129.615 19.0746 129.615 19.7422V29H125.077Z" fill="white"/>
</svg>
